#define max_width 10
#define max_height 10
static unsigned char max_bits[] = {
0xfc, 0x03, 0x04, 0x02, 0x07, 0x02, 0x05, 0x02, 0x05, 0x02, 0x05, 0x02, 0xfd, 0x03, 0x01, 0x01, 0x01, 0x01, 0xff, 0x01 };
